<svg width="236" height="126" viewBox="0 0 236 126" fill="none" xmlns="http://www.w3.org/2000/svg">
<g filter="url(#filter0_d_2684_31)">
<ellipse cx="120" cy="60" rx="114" ry="59" fill="#E2FEC1"/>
<path d="M231.5 60C231.5 74.8805 219.794 88.9756 199.461 99.499C179.254 109.957 151.164 116.5 120 116.5C88.8359 116.5 60.7462 109.957 40.5389 99.499C20.2056 88.9756 8.5 74.8805 8.5 60C8.5 45.1195 20.2056 31.0244 40.5389 20.501C60.7462 10.0428 88.8359 3.5 120 3.5C151.164 3.5 179.254 10.0428 199.461 20.501C219.794 31.0244 231.5 45.1195 231.5 60Z" stroke="white" stroke-width="5"/>
</g>
<path d="M223.75 59.5C223.75 72.9801 212.573 85.5348 193.696 94.7937C174.9 104.013 148.846 109.75 120 109.75C91.1537 109.75 65.1 104.013 46.3042 94.7937C27.4267 85.5348 16.25 72.9801 16.25 59.5C16.25 46.0199 27.4267 33.4653 46.3042 24.2063C65.1 14.9874 91.1537 9.25 120 9.25C148.846 9.25 174.9 14.9874 193.696 24.2063C212.573 33.4653 223.75 46.0199 223.75 59.5Z" stroke="#89800A" stroke-width="2.5"/>
<path d="M37.28 59.84C37.28 57.0667 37.8533 54.6 39 52.44C40.1733 50.2533 41.8267 48.56 43.96 47.36C46.0933 46.1333 48.5467 45.52 51.32 45.52C54.84 45.52 57.8 46.4667 60.2 48.36C62.6 50.2267 64.1467 52.7733 64.84 56H56.4C55.8933 54.9333 55.1867 54.12 54.28 53.56C53.4 53 52.3733 52.72 51.2 52.72C49.3867 52.72 47.9333 53.3733 46.84 54.68C45.7733 55.96 45.24 57.68 45.24 59.84C45.24 62.0267 45.7733 63.7733 46.84 65.08C47.9333 66.36 49.3867 67 51.2 67C52.3733 67 53.4 66.72 54.28 66.16C55.1867 65.6 55.8933 64.7867 56.4 63.72H64.84C64.1467 66.9467 62.6 69.5067 60.2 71.4C57.8 73.2667 54.84 74.2 51.32 74.2C48.5467 74.2 46.0933 73.6 43.96 72.4C41.8267 71.1733 40.1733 69.48 39 67.32C37.8533 65.1333 37.28 62.64 37.28 59.84ZM78.9925 74.28C76.7525 74.28 74.7392 73.8133 72.9525 72.88C71.1925 71.9467 69.8058 70.6133 68.7925 68.88C67.7792 67.1467 67.2725 65.1067 67.2725 62.76C67.2725 60.44 67.7792 58.4133 68.7925 56.68C69.8325 54.9467 71.2325 53.6133 72.9925 52.68C74.7792 51.7467 76.7925 51.28 79.0325 51.28C81.2725 51.28 83.2725 51.7467 85.0325 52.68C86.8192 53.6133 88.2192 54.9467 89.2325 56.68C90.2725 58.4133 90.7925 60.44 90.7925 62.76C90.7925 65.08 90.2725 67.12 89.2325 68.88C88.2192 70.6133 86.8192 71.9467 85.0325 72.88C83.2458 73.8133 81.2325 74.28 78.9925 74.28ZM78.9925 67.48C80.0858 67.48 80.9925 67.08 81.7125 66.28C82.4592 65.4533 82.8325 64.28 82.8325 62.76C82.8325 61.24 82.4592 60.08 81.7125 59.28C80.9925 58.48 80.0992 58.08 79.0325 58.08C77.9658 58.08 77.0725 58.48 76.3525 59.28C75.6325 60.08 75.2725 61.24 75.2725 62.76C75.2725 64.3067 75.6192 65.48 76.3125 66.28C77.0058 67.08 77.8992 67.48 78.9925 67.48ZM108.662 51.36C111.249 51.36 113.302 52.2267 114.822 53.96C116.342 55.6667 117.102 57.9867 117.102 60.92V74H109.262V61.96C109.262 60.68 108.929 59.68 108.262 58.96C107.596 58.2133 106.702 57.84 105.582 57.84C104.409 57.84 103.489 58.2133 102.822 58.96C102.156 59.68 101.822 60.68 101.822 61.96V74H93.9822V51.56H101.822V54.76C102.516 53.7467 103.449 52.9333 104.622 52.32C105.796 51.68 107.142 51.36 108.662 51.36ZM134.644 67.32V74H131.244C125.511 74 122.644 71.16 122.644 65.48V58.08H119.884V51.56H122.644V46.12H130.524V51.56H134.604V58.08H130.524V65.6C130.524 66.2133 130.657 66.6533 130.924 66.92C131.217 67.1867 131.697 67.32 132.364 67.32H134.644ZM159.68 62.52C159.68 63.1333 159.64 63.7467 159.56 64.36H144.72C144.8 65.5867 145.133 66.5067 145.72 67.12C146.333 67.7067 147.107 68 148.04 68C149.347 68 150.28 67.4133 150.84 66.24H159.2C158.853 67.7867 158.173 69.1733 157.16 70.4C156.173 71.6 154.92 72.5467 153.4 73.24C151.88 73.9333 150.2 74.28 148.36 74.28C146.147 74.28 144.173 73.8133 142.44 72.88C140.733 71.9467 139.387 70.6133 138.4 68.88C137.44 67.1467 136.96 65.1067 136.96 62.76C136.96 60.4133 137.44 58.3867 138.4 56.68C139.36 54.9467 140.693 53.6133 142.4 52.68C144.133 51.7467 146.12 51.28 148.36 51.28C150.573 51.28 152.533 51.7333 154.24 52.64C155.947 53.5467 157.28 54.8533 158.24 56.56C159.2 58.24 159.68 60.2267 159.68 62.52ZM151.68 60.56C151.68 59.6 151.36 58.8533 150.72 58.32C150.08 57.76 149.28 57.48 148.32 57.48C147.36 57.48 146.573 57.7467 145.96 58.28C145.347 58.7867 144.947 59.5467 144.76 60.56H151.68ZM177.568 51.36C180.155 51.36 182.208 52.2267 183.728 53.96C185.248 55.6667 186.008 57.9867 186.008 60.92V74H178.168V61.96C178.168 60.68 177.835 59.68 177.168 58.96C176.502 58.2133 175.608 57.84 174.488 57.84C173.315 57.84 172.395 58.2133 171.728 58.96C171.062 59.68 170.728 60.68 170.728 61.96V74H162.888V51.56H170.728V54.76C171.422 53.7467 172.355 52.9333 173.528 52.32C174.702 51.68 176.048 51.36 177.568 51.36ZM203.55 67.32V74H200.15C194.417 74 191.55 71.16 191.55 65.48V58.08H188.79V51.56H191.55V46.12H199.43V51.56H203.51V58.08H199.43V65.6C199.43 66.2133 199.564 66.6533 199.83 66.92C200.124 67.1867 200.604 67.32 201.27 67.32H203.55Z" fill="#89800A"/>
<defs>
<filter id="filter0_d_2684_31" x="0" y="0" width="236" height="126" filterUnits="userSpaceOnUse" color-interpolation-filters="sRGB">
<feFlood flood-opacity="0" result="BackgroundImageFix"/>
<feColorMatrix in="SourceAlpha" type="matrix" values="0 0 0 0 0 0 0 0 0 0 0 0 0 0 0 0 0 0 127 0" result="hardAlpha"/>
<feOffset dx="-2" dy="3"/>
<feGaussianBlur stdDeviation="2"/>
<feComposite in2="hardAlpha" operator="out"/>
<feColorMatrix type="matrix" values="0 0 0 0 0 0 0 0 0 0 0 0 0 0 0 0 0 0 0.25 0"/>
<feBlend mode="normal" in2="BackgroundImageFix" result="effect1_dropShadow_2684_31"/>
<feBlend mode="normal" in="SourceGraphic" in2="effect1_dropShadow_2684_31" result="shape"/>
</filter>
</defs>
</svg>
