<svg width="381" height="344" viewBox="0 0 381 344" fill="none" xmlns="http://www.w3.org/2000/svg">
<g filter="url(#filter0_d_2684_32)">
<path d="M156.365 94.855C167.878 62.8628 213.122 62.8628 224.635 94.8549L225.137 96.2491C230.016 109.808 242.878 118.849 257.289 118.849H263.297C295.454 118.849 307.943 160.657 281.055 178.296V178.296C268.533 186.509 263.334 202.393 268.405 216.483V216.483C279.265 246.66 245.699 273.908 218.882 256.317L210.626 250.901C198.406 242.884 182.594 242.884 170.374 250.901L162.117 256.317C135.301 273.908 101.735 246.66 112.595 216.483V216.483C117.666 202.393 112.467 186.509 99.9452 178.296V178.296C73.057 160.657 85.5462 118.849 117.703 118.849H123.711C138.122 118.849 150.984 109.808 155.863 96.2491L156.365 94.855Z" fill="#F6F6BD"/>
<path d="M222.283 95.7015L222.785 97.0956C228.021 111.647 241.824 121.349 257.289 121.349H263.297C292.971 121.349 304.495 159.929 279.684 176.205C266.183 185.062 260.596 202.165 266.053 217.329C276.14 245.36 244.963 270.435 220.254 254.226L211.998 248.81C198.945 240.248 182.055 240.248 169.002 248.81L160.746 254.226C136.037 270.435 104.86 245.36 114.947 217.329C120.404 202.165 114.817 185.062 101.316 176.205C76.5045 159.929 88.0293 121.349 117.703 121.349H123.711C139.176 121.349 152.979 111.647 158.215 97.0957L158.717 95.7015C169.437 65.914 211.563 65.914 222.283 95.7015Z" stroke="white" stroke-width="5"/>
</g>
<path d="M220.855 98.8565L221.329 100.175C226.36 114.176 239.637 123.512 254.514 123.512H260.198C288.56 123.512 299.585 160.378 275.88 175.949C262.903 184.473 257.533 200.916 262.774 215.499C272.406 242.302 242.583 266.245 218.976 250.739L211.17 245.611C198.623 237.369 182.377 237.369 169.83 245.611L162.024 250.739C138.417 266.245 108.594 242.302 118.226 215.499C123.467 200.916 118.097 184.473 105.12 175.949C81.4149 160.378 92.4401 123.512 120.802 123.512H126.486C141.363 123.512 154.64 114.175 159.671 100.175L160.145 98.8565C170.374 70.3943 210.626 70.3943 220.855 98.8565Z" stroke="#FFA41B" stroke-opacity="0.941176" stroke-width="5"/>
<path d="M171.975 185.375V203H167.075V193.275L163.75 203H159.65L156.3 193.2V203H151.4V185.375H157.325L161.75 196.825L166.075 185.375H171.975ZM188.164 195.825C188.164 196.208 188.139 196.592 188.089 196.975H178.814C178.864 197.742 179.073 198.317 179.439 198.7C179.823 199.067 180.306 199.25 180.889 199.25C181.706 199.25 182.289 198.883 182.639 198.15H187.864C187.648 199.117 187.223 199.983 186.589 200.75C185.973 201.5 185.189 202.092 184.239 202.525C183.289 202.958 182.239 203.175 181.089 203.175C179.706 203.175 178.473 202.883 177.389 202.3C176.323 201.717 175.481 200.883 174.864 199.8C174.264 198.717 173.964 197.442 173.964 195.975C173.964 194.508 174.264 193.242 174.864 192.175C175.464 191.092 176.298 190.258 177.364 189.675C178.448 189.092 179.689 188.8 181.089 188.8C182.473 188.8 183.698 189.083 184.764 189.65C185.831 190.217 186.664 191.033 187.264 192.1C187.864 193.15 188.164 194.392 188.164 195.825ZM183.164 194.6C183.164 194 182.964 193.533 182.564 193.2C182.164 192.85 181.664 192.675 181.064 192.675C180.464 192.675 179.973 192.842 179.589 193.175C179.206 193.492 178.956 193.967 178.839 194.6H183.164ZM189.37 195.975C189.37 194.525 189.628 193.258 190.145 192.175C190.678 191.092 191.403 190.258 192.32 189.675C193.236 189.092 194.253 188.8 195.37 188.8C196.27 188.8 197.07 188.992 197.77 189.375C198.486 189.742 199.045 190.25 199.445 190.9V184.5H204.37V203H199.445V201.05C199.061 201.7 198.52 202.217 197.82 202.6C197.12 202.983 196.295 203.175 195.345 203.175C194.228 203.175 193.211 202.883 192.295 202.3C191.395 201.717 190.678 200.883 190.145 199.8C189.628 198.7 189.37 197.425 189.37 195.975ZM199.47 195.975C199.47 195.075 199.22 194.367 198.72 193.85C198.236 193.333 197.636 193.075 196.92 193.075C196.186 193.075 195.578 193.333 195.095 193.85C194.611 194.35 194.37 195.058 194.37 195.975C194.37 196.875 194.611 197.592 195.095 198.125C195.578 198.642 196.186 198.9 196.92 198.9C197.636 198.9 198.236 198.642 198.72 198.125C199.22 197.608 199.47 196.892 199.47 195.975ZM209.637 187.675C208.77 187.675 208.07 187.442 207.537 186.975C207.02 186.492 206.762 185.892 206.762 185.175C206.762 184.442 207.02 183.833 207.537 183.35C208.07 182.867 208.77 182.625 209.637 182.625C210.487 182.625 211.17 182.867 211.687 183.35C212.22 183.833 212.487 184.442 212.487 185.175C212.487 185.892 212.22 186.492 211.687 186.975C211.17 187.442 210.487 187.675 209.637 187.675ZM212.062 188.975V203H207.162V188.975H212.062ZM214.052 195.975C214.052 194.525 214.31 193.258 214.827 192.175C215.36 191.092 216.077 190.258 216.977 189.675C217.894 189.092 218.91 188.8 220.027 188.8C220.994 188.8 221.827 188.992 222.527 189.375C223.227 189.758 223.769 190.275 224.152 190.925V188.975H229.052V203H224.152V201.05C223.769 201.7 223.219 202.217 222.502 202.6C221.802 202.983 220.977 203.175 220.027 203.175C218.91 203.175 217.894 202.883 216.977 202.3C216.077 201.717 215.36 200.883 214.827 199.8C214.31 198.7 214.052 197.425 214.052 195.975ZM224.152 195.975C224.152 195.075 223.902 194.367 223.402 193.85C222.919 193.333 222.319 193.075 221.602 193.075C220.869 193.075 220.26 193.333 219.777 193.85C219.294 194.35 219.052 195.058 219.052 195.975C219.052 196.875 219.294 197.592 219.777 198.125C220.26 198.642 220.869 198.9 221.602 198.9C222.319 198.9 222.919 198.642 223.402 198.125C223.902 197.608 224.152 196.892 224.152 195.975Z" fill="#FFA41B"/>
<path d="M139.88 174.28C136.6 174.28 133.907 173.507 131.8 171.96C129.693 170.387 128.56 168.147 128.4 165.24H136.76C136.84 166.227 137.133 166.947 137.64 167.4C138.147 167.853 138.8 168.08 139.6 168.08C140.32 168.08 140.907 167.907 141.36 167.56C141.84 167.187 142.08 166.68 142.08 166.04C142.08 165.213 141.693 164.573 140.92 164.12C140.147 163.667 138.893 163.16 137.16 162.6C135.32 161.987 133.827 161.4 132.68 160.84C131.56 160.253 130.573 159.413 129.72 158.32C128.893 157.2 128.48 155.747 128.48 153.96C128.48 152.147 128.933 150.6 129.84 149.32C130.747 148.013 132 147.027 133.6 146.36C135.2 145.693 137.013 145.36 139.04 145.36C142.32 145.36 144.933 146.133 146.88 147.68C148.853 149.2 149.907 151.347 150.04 154.12H141.52C141.493 153.267 141.227 152.627 140.72 152.2C140.24 151.773 139.613 151.56 138.84 151.56C138.253 151.56 137.773 151.733 137.4 152.08C137.027 152.427 136.84 152.92 136.84 153.56C136.84 154.093 137.04 154.56 137.44 154.96C137.867 155.333 138.387 155.667 139 155.96C139.613 156.227 140.52 156.573 141.72 157C143.507 157.613 144.973 158.227 146.12 158.84C147.293 159.427 148.293 160.267 149.12 161.36C149.973 162.427 150.4 163.787 150.4 165.44C150.4 167.12 149.973 168.627 149.12 169.96C148.293 171.293 147.08 172.347 145.48 173.12C143.907 173.893 142.04 174.28 139.88 174.28ZM164.485 174.28C162.245 174.28 160.231 173.813 158.445 172.88C156.685 171.947 155.298 170.613 154.285 168.88C153.271 167.147 152.765 165.107 152.765 162.76C152.765 160.44 153.271 158.413 154.285 156.68C155.325 154.947 156.725 153.613 158.485 152.68C160.271 151.747 162.285 151.28 164.525 151.28C166.765 151.28 168.765 151.747 170.525 152.68C172.311 153.613 173.711 154.947 174.725 156.68C175.765 158.413 176.285 160.44 176.285 162.76C176.285 165.08 175.765 167.12 174.725 168.88C173.711 170.613 172.311 171.947 170.525 172.88C168.738 173.813 166.725 174.28 164.485 174.28ZM164.485 167.48C165.578 167.48 166.485 167.08 167.205 166.28C167.951 165.453 168.325 164.28 168.325 162.76C168.325 161.24 167.951 160.08 167.205 159.28C166.485 158.48 165.591 158.08 164.525 158.08C163.458 158.08 162.565 158.48 161.845 159.28C161.125 160.08 160.765 161.24 160.765 162.76C160.765 164.307 161.111 165.48 161.805 166.28C162.498 167.08 163.391 167.48 164.485 167.48ZM178.194 162.76C178.194 160.44 178.674 158.413 179.634 156.68C180.594 154.947 181.928 153.613 183.634 152.68C185.368 151.747 187.341 151.28 189.554 151.28C192.408 151.28 194.808 152.067 196.754 153.64C198.701 155.187 199.954 157.36 200.514 160.16H192.194C191.714 158.693 190.781 157.96 189.394 157.96C188.408 157.96 187.621 158.373 187.034 159.2C186.474 160 186.194 161.187 186.194 162.76C186.194 164.333 186.474 165.533 187.034 166.36C187.621 167.187 188.408 167.6 189.394 167.6C190.808 167.6 191.741 166.867 192.194 165.4H200.514C199.954 168.173 198.701 170.347 196.754 171.92C194.808 173.493 192.408 174.28 189.554 174.28C187.341 174.28 185.368 173.813 183.634 172.88C181.928 171.947 180.594 170.613 179.634 168.88C178.674 167.147 178.194 165.107 178.194 162.76ZM207.731 149.48C206.345 149.48 205.225 149.107 204.371 148.36C203.545 147.587 203.131 146.627 203.131 145.48C203.131 144.307 203.545 143.333 204.371 142.56C205.225 141.787 206.345 141.4 207.731 141.4C209.091 141.4 210.185 141.787 211.011 142.56C211.865 143.333 212.291 144.307 212.291 145.48C212.291 146.627 211.865 147.587 211.011 148.36C210.185 149.107 209.091 149.48 207.731 149.48ZM211.611 151.56V174H203.771V151.56H211.611ZM214.796 162.76C214.796 160.44 215.209 158.413 216.036 156.68C216.889 154.947 218.036 153.613 219.476 152.68C220.943 151.747 222.569 151.28 224.356 151.28C225.903 151.28 227.236 151.587 228.356 152.2C229.476 152.813 230.343 153.64 230.956 154.68V151.56H238.796V174H230.956V170.88C230.343 171.92 229.463 172.747 228.316 173.36C227.196 173.973 225.876 174.28 224.356 174.28C222.569 174.28 220.943 173.813 219.476 172.88C218.036 171.947 216.889 170.613 216.036 168.88C215.209 167.12 214.796 165.08 214.796 162.76ZM230.956 162.76C230.956 161.32 230.556 160.187 229.756 159.36C228.983 158.533 228.023 158.12 226.876 158.12C225.703 158.12 224.729 158.533 223.956 159.36C223.183 160.16 222.796 161.293 222.796 162.76C222.796 164.2 223.183 165.347 223.956 166.2C224.729 167.027 225.703 167.44 226.876 167.44C228.023 167.44 228.983 167.027 229.756 166.2C230.556 165.373 230.956 164.227 230.956 162.76ZM251.103 144.4V174H243.263V144.4H251.103Z" fill="#FFA41B"/>
<defs>
<filter id="filter0_d_2684_32" x="81.2695" y="70.8613" width="218.461" height="199.001" filterUnits="userSpaceOnUse" color-interpolation-filters="sRGB">
<feFlood flood-opacity="0" result="BackgroundImageFix"/>
<feColorMatrix in="SourceAlpha" type="matrix" values="0 0 0 0 0 0 0 0 0 0 0 0 0 0 0 0 0 0 127 0" result="hardAlpha"/>
<feOffset dy="4"/>
<feGaussianBlur stdDeviation="2"/>
<feComposite in2="hardAlpha" operator="out"/>
<feColorMatrix type="matrix" values="0 0 0 0 0 0 0 0 0 0 0 0 0 0 0 0 0 0 0.25 0"/>
<feBlend mode="normal" in2="BackgroundImageFix" result="effect1_dropShadow_2684_32"/>
<feBlend mode="normal" in="SourceGraphic" in2="effect1_dropShadow_2684_32" result="shape"/>
</filter>
</defs>
</svg>
